# xmcd
#
# Track frame offsets: 
#        150
#        15520
#        40051
#        60232
#        73572
#        96803
#        112256
#        132782
#        155993
#        169548
#        196744
#        212469
#
# Disc length: 3036 seconds
#
# Revision: 0
# Processed by: cddbd v1.5.2PL0 Copyright (c) Steve Scherf et al.
# Submitted via: ExactAudioCopyFreeDBPlugin 1.0
#
DISCID=990bda0c
DTITLE=Various Artist - Body and Soul Of The 70S - A Body and Soul Collec
DTITLE=tion
DYEAR=2003
DGENRE=Soul
TTITLE0=Joe Simon - Drownin' In The Sea Of Love
TTITLE1=Teddy Pendergrass - Close The Door
TTITLE2=Lou Rawls - You'll Never Find Another Love Like Mine
TTITLE3=Tyrone Davis - Turn Back The Hands Of Time
TTITLE4=Johnnie Taylor - I Believe In You (You Believe In Me)
TTITLE5=Luther Ingram - (If Loving You Is Wrong) I Don't Want To Be Ri
TTITLE5=ght
TTITLE6=Marvin Gaye - I Want You
TTITLE7=The Dramatics - In The Rain
TTITLE8=King Floyd - Groove Me
TTITLE9=Enchantment - It's You That I Need
TTITLE10=The Staple Singers - Let's Do It Again
TTITLE11=Minnie Riperton - Lovin' You
EXTD=
EXTT0=
EXTT1=
EXTT2=
EXTT3=
EXTT4=
EXTT5=
EXTT6=
EXTT7=
EXTT8=
EXTT9=
EXTT10=
EXTT11=
PLAYORDER=
